<?xml version="1.0" encoding="UTF-8"?>
<svg width="87px" height="87px" viewBox="0 0 87 87" version="1.1" xmlns="http://www.w3.org/2000/svg" xmlns:xlink="http://www.w3.org/1999/xlink">
    <!-- Generator: sketchtool 61.2 (101010) - https://sketch.com -->
    <title>743DCA40-1E4C-478C-ABBF-845CB7DE97E9</title>
    <desc>Created with sketchtool.</desc>
    <g id="Asset-Artboard-Page" stroke="none" stroke-width="1" fill="none" fill-rule="evenodd">
        <g id="Icons/logos/brand/adidas_originals-Copy-Icons/logos/brand/columbia" fill="#000">
            <path d="M4.87016843,44.9404209 C5.29401931,45.3625707 5.29401931,46.0486705 4.87016843,46.4708204 L4.5143605,46.8277623 C4.09249422,47.2507626 3.40611096,47.2507626 2.98282711,46.8277623 L0.533564428,44.3787831 C0.11169814,43.9554992 0.11169814,43.2691159 0.533564428,42.8466826 L0.890222891,42.4908747 C1.31379025,42.0670238 1.99932297,42.0670238 2.42260682,42.4908747 L4.87016843,44.9404209 Z M4.62748197,40.2842983 C4.2036311,39.8627155 3.51753134,39.8627155 3.09424748,40.2842983 L2.73929009,40.6420908 C2.31600623,41.0642406 2.31600623,41.7506239 2.73929009,42.1736242 L5.18826929,44.6223199 C5.61070261,45.0453202 6.29623534,45.0453202 6.71980271,44.6223199 L7.07646118,44.2653779 C7.4988945,43.8432281 7.4988945,43.1576954 7.07646118,42.7349786 L4.62748197,40.2842983 Z M11.1559197,42.445229 C10.7329194,42.0222287 10.0471032,42.0222287 9.62353582,42.445229 L9.26772789,42.802171 C8.84501105,43.2237538 8.84501105,43.9104206 9.26772789,44.3325704 L11.7175576,46.7818332 C12.1408415,47.2048336 12.8269413,47.2048336 13.249091,46.7818332 L13.6051825,46.4257417 C14.0284664,46.0024578 14.0284664,45.3172086 13.6051825,44.8942083 L11.1559197,42.445229 Z M13.3616456,40.2397868 C12.9380782,39.81707 12.252262,39.81707 11.8275605,40.2397868 L11.4728866,40.5964453 C11.0490357,41.0194456 11.0490357,41.7061124 11.4728866,42.1279787 L13.9218658,44.5772415 C14.3451497,44.9999583 15.0309659,44.9999583 15.4542498,44.5772415 L15.8094907,44.2214335 C16.2327746,43.7981497 16.2327746,43.1126169 15.8094907,42.688766 L13.3616456,40.2397868 Z M9.29012519,37.8134887 C9.71340903,37.3904884 9.71340903,36.7052391 9.29012519,36.2819553 L8.93431726,35.9255803 C8.51188396,35.5028635 7.82606773,35.5028635 7.40136632,35.9255803 L4.95352122,38.374276 C4.53052089,38.7967093 4.53052089,39.4825256 4.95352122,39.9069435 L5.3081951,40.2619008 C5.73176245,40.6840507 6.41899625,40.6840507 6.84001199,40.2619008 L9.29012519,37.8134887 Z M11.4955671,40.0180802 C11.9174334,39.5956469 11.9174334,38.9084131 11.4955671,38.4865468 L11.1380581,38.1293213 C10.7156247,37.7077386 10.0300921,37.7077386 9.60652472,38.1293213 L7.15896316,40.5800015 C6.73652985,41.0021513 6.73652985,41.688251 7.15896316,42.1115349 L7.5127865,42.4673428 C7.93607034,42.8900596 8.62330411,42.8900596 9.04658795,42.4673428 L11.4955671,40.0180802 Z M9.29381083,46.4200711 C9.71539362,45.9959368 9.71539362,45.3118216 9.29381083,44.8882542 L8.93771937,44.5324463 C8.51386848,44.1094459 7.82805221,44.1094459 7.40618591,44.5324463 L4.95437149,46.981142 C4.53363923,47.4035753 4.53363923,48.0905256 4.95437149,48.5135259 L5.3118805,48.8690503 C5.73516437,49.2917671 6.42126416,49.2917671 6.84341398,48.8690503 L9.29381083,46.4200711 Z M11.4978354,48.6257969 C11.9214027,48.2025131 11.9214027,47.5164134 11.4978354,47.0931295 L11.142878,46.7376051 C10.7193106,46.3143213 10.0334944,46.3143213 9.60992702,46.7376051 L7.16123142,49.1865843 C6.73794757,49.6101516 6.73794757,50.2954009 7.16123142,50.7184012 L7.51732285,51.0742091 C7.94060669,51.4972095 8.62557237,51.4972095 9.04743865,51.0742091 L11.4978354,48.6257969 Z M29.3171496,46.4634487 C29.382074,46.5598429 29.714634,47.0698815 29.714634,47.0698815 C29.532619,47.8469887 29.0540502,48.8443849 29.0540502,48.8443849 L28.9811876,48.8721691 C27.167843,49.5883212 24.3732622,50.1870991 21.3632121,48.971682 C19.5609244,48.2402202 18.2811499,46.8297466 17.7617553,44.9962726 C17.2222315,43.0930546 17.6010039,41.0072547 18.7719097,39.4161837 C20.0661434,37.6612426 22.1576136,36.6967338 24.9947211,36.5473228 C26.0646966,36.4906204 28.2698552,36.7812205 29.463442,37.4548457 L29.5632383,37.5123987 C29.5632383,37.5123987 29.6077498,40.4878602 29.577981,40.6168582 L29.5445265,40.7628671 C29.5445265,40.7628671 28.6611022,40.7932029 28.6628033,40.7946205 L28.6137556,40.5232992 C28.4660458,39.6605713 28.0713966,37.3437088 24.8416245,37.5123987 C23.4578009,37.5827097 22.3435977,38.2781654 21.5137571,39.3719558 C20.5004841,40.703046 20.1908888,42.5489945 20.6413898,44.5667515 C21.0794163,46.5346103 22.5729591,47.7979411 23.7191993,48.2402202 C24.1994691,48.4276218 25.7281675,48.7720892 26.8863152,48.2458905 C27.8970366,47.7871676 28.853607,47.0483345 29.3171496,46.4634487 L29.3171496,46.4634487 Z M40.2882239,49.6319824 L40.2907755,39.3512594 C40.2907755,39.0218182 40.2907755,38.4709538 39.9380862,38.0989856 C39.8890386,38.0479534 39.4201093,37.6740007 39.4201093,37.6740007 L39.4201093,37.219247 L42.1866222,36.6641299 L42.4352625,36.8237473 C42.4352625,36.8237473 42.4242056,47.7023977 42.4284582,47.8495406 C42.4655983,48.9061909 43.1871371,48.977636 43.1871371,48.977636 L43.1871371,49.6319824 L40.2882239,49.6319824 Z M52.5464457,48.9385109 C52.0500156,48.8197193 51.7979732,48.4086265 51.7979732,47.7137378 L51.8030765,41.1943729 L51.5544362,41.0361731 L48.781686,41.5912901 L48.781686,42.0460438 C48.781686,42.0460438 49.257703,42.4228316 49.3047661,42.4713122 C49.6574554,42.8444144 49.6585895,43.3941447 49.6585895,43.7224519 L49.6560378,47.6071372 C48.7519171,48.2980567 47.9127207,48.5393256 47.3451291,48.2694219 C46.8849886,48.050834 46.6258584,47.5081915 46.6113992,46.7404402 L46.6113992,41.1943729 L46.3653106,41.0361731 L43.5900087,41.5912901 L43.5900087,42.0460438 C43.5900087,42.0460438 44.0651753,42.4211306 44.1139395,42.4713122 C44.471732,42.8492341 44.4705979,43.4052017 44.4680463,43.735777 L44.4680463,47.047484 C44.4904438,47.6853866 44.5230477,47.9042581 44.5916577,48.1846518 C44.7648837,48.8976852 45.1810798,49.3941152 45.7968684,49.6237602 C46.7755529,49.9875063 48.1695829,49.6328325 49.6563213,48.6498955 L49.6563213,49.550047 L52.6969907,49.5486294 L52.6969907,48.9742335 L52.5464457,48.9385109 Z M66.3200422,48.938511 C65.844025,48.8253896 65.5919825,48.4114617 65.5738378,47.7137378 L65.5710026,43.7221683 C65.5710026,42.805573 65.0918668,41.0699108 63.2856101,41.0699108 C61.9440299,41.0699108 61.0285686,41.8665803 60.5908256,42.3054573 C60.2996585,41.6893851 59.7346185,41.0699108 58.6320391,41.0699108 C57.7846209,41.0699108 56.978879,41.3925478 56.2352262,42.0304504 L56.2366437,41.1952232 L55.989421,41.0358893 L53.2152532,41.5910064 L53.2152532,42.0457601 C53.2152532,42.0457601 53.6915539,42.4225479 53.7406015,42.4710285 C54.0921567,42.8432802 54.0932908,43.393861 54.0932908,43.7213177 L54.0947083,49.5497634 L57.1141144,49.5483459 L57.1141144,48.97395 L56.9641364,48.938511 C56.4906708,48.8256731 56.2530875,48.4236527 56.2355098,47.7083512 C56.2355098,47.7123203 56.2338087,43.6904149 56.2332416,43.0510947 C56.7639766,42.6042793 57.2966962,42.5107203 57.8603187,42.5586338 C58.3184746,42.5994596 58.7913731,42.9172769 58.8029971,44.5695865 C58.8029971,44.5667514 58.7990279,49.5497634 58.7990279,49.5497634 L61.8170163,49.5483459 L61.8170163,48.97395 L61.6670383,48.938511 C61.185918,48.823972 60.9435149,48.4213845 60.9259371,47.7083512 C60.9259371,47.7137378 60.9236691,43.7221683 60.9236691,43.7221683 C60.9236691,43.6172687 60.9032562,43.2835748 60.8672501,43.069523 C61.4087586,42.6039958 61.9355245,42.5095862 62.5138895,42.5586338 C62.9731794,42.5994596 63.4446604,42.9172769 63.4562844,44.5690195 L63.4562844,49.5497634 L66.4703036,49.5483459 L66.4703036,48.97395 L66.3200422,48.938511 Z M39.2930977,45.3316676 C39.293947,44.0535942 38.8814366,42.9620719 38.0941229,42.1747583 C37.2776075,41.3607945 36.1154906,40.9309899 34.7313836,40.9309899 C32.1264726,40.933825 30.1651346,42.8245685 30.1659848,45.3316676 C30.1674026,48.0015028 31.9589168,49.7303607 34.7313836,49.7306605 C36.0619068,49.7337628 37.208147,49.2917671 38.0464929,48.4537049 C38.8528018,47.649664 39.2930977,46.5414145 39.2930977,45.3316676 L39.2930977,45.3316676 Z M34.7328033,48.7933527 C33.0410855,48.7933527 32.5693211,47.463113 32.5659189,45.319193 C32.5659189,43.7439988 33.0396679,41.845884 34.7328033,41.845884 C36.4259386,41.845884 36.9008217,43.7439988 36.9005384,45.319193 C36.8988371,47.463113 36.42282,48.7933527 34.7328033,48.7933527 L34.7328033,48.7933527 Z M76.5417897,38.3813639 C76.5417897,37.7635906 77.0470086,37.2603562 77.6667665,37.2603562 C78.2853904,37.2603562 78.7891918,37.7635906 78.7891918,38.3813639 C78.7891918,38.9999877 78.2853904,39.501521 77.6667665,39.501521 C77.0470086,39.501521 76.5417897,38.9999877 76.5417897,38.3813639 L76.5417897,38.3813639 Z M76.6897837,49.5497639 L76.6929024,43.6671672 C76.6940364,43.3221328 76.695454,42.8021712 76.3526877,42.4375744 C76.3019389,42.3873927 75.8270558,42.0120225 75.8270558,42.0120225 L75.8270558,41.5572687 L78.5983884,41.0030022 L78.8470286,41.1617691 C78.8470286,41.1617691 78.8399408,47.7137382 78.8399408,47.7083515 C78.8578021,48.4247871 79.0939679,48.8265241 79.558928,48.9385114 L79.7091895,48.9739504 L79.7091895,49.5483463 L76.6897837,49.5497639 Z M75.1097716,43.0715079 C74.5248857,42.0222289 73.7548663,41.3749703 72.81559,41.1464594 C71.5156861,40.8306267 70.210679,41.4002029 69.4046535,41.8810398 L69.4108908,36.8237473 L69.1639516,36.6641299 L66.3951705,37.219247 L66.3951705,37.6740007 C66.3951705,37.6740007 66.8706206,38.0479534 66.9188177,38.0989856 C67.2615841,38.4601803 67.26045,38.9795749 67.2581819,39.3229083 L67.2519446,48.8355965 L67.2519446,48.9552387 L67.3574112,49.0096731 C68.9354406,49.8244874 71.0203901,49.9449802 72.5442687,49.3107631 C74.2498788,48.6025495 74.9731186,47.3976221 75.282147,46.5136308 C75.7456896,45.1785713 75.5310708,43.8233825 75.1097716,43.0715079 L75.1097716,43.0715079 Z M72.8039692,47.6224468 C72.3239829,48.4386787 71.3441644,48.9084585 70.5721605,48.6944067 C69.7995894,48.4797879 69.3819758,47.6612879 69.3944503,46.3914364 C69.3944503,46.3900189 69.3953009,43.4970595 69.3953009,42.8634096 C69.4233686,42.849801 69.4494517,42.8361924 69.4820556,42.8208827 C69.9461653,42.5824489 70.8125789,42.1381851 71.9715771,42.7287412 C72.5975723,43.0459915 73.0633829,43.6405167 73.284806,44.4020307 C73.5833445,45.424376 73.4069998,46.5984004 72.8039692,47.6224468 L72.8039692,47.6224468 Z M87.2154645,48.6388389 L87.0572647,48.6099206 C86.9313852,48.5858221 86.7059929,48.284165 86.7059929,47.7647705 L86.7059929,43.8970957 C86.7059929,42.7777892 86.3447983,41.9000351 85.6924365,41.4260025 C85.0953596,40.9910947 84.273741,40.9256033 83.3166036,41.2363328 C82.1890752,41.6014967 80.4707073,43.1032613 80.198819,43.4375223 L80.1372968,43.5123695 L80.1611118,43.6067791 C80.1843599,43.7048744 80.3127909,43.903333 80.4012468,43.9767627 L80.4568152,44.0235422 L82.3356511,44.0232587 C82.3356511,44.0232587 82.3316818,43.5758763 82.3316818,43.4962093 C82.3316818,42.7239218 82.8388854,42.3567734 83.2638702,42.2765394 C83.6945254,42.1968725 83.9871101,42.2371312 84.1909554,42.4066716 C84.480705,42.6485076 84.6289819,43.188315 84.6289819,44.0136193 L84.6267138,44.5029615 L80.6569748,46.266408 L80.580143,46.30128 L80.5523588,46.381514 C80.1863444,47.4914646 80.2665784,48.3448367 80.788808,48.9197996 C81.6101431,49.8259049 83.6128739,49.9515008 86.5333339,49.2931853 C86.754757,49.2359158 87.2171655,49.1865847 87.2171655,49.1865847 C87.2154645,49.1865847 87.2154645,48.6388389 87.2154645,48.6388389 L87.2154645,48.6388389 Z M84.6360659,45.4549951 L84.6369164,48.437828 C83.9822865,48.896551 83.3222699,48.9433305 82.8590108,48.5577538 C82.3515239,48.1375885 82.240954,47.3431871 82.5791842,46.6086067 L84.6360659,45.4549951 Z" id="logo"></path>
        </g>
    </g>
</svg>