<?xml version="1.0" encoding="UTF-8" standalone="no"?>
<!DOCTYPE svg PUBLIC "-//W3C//DTD SVG 1.1//EN" "http://www.w3.org/Graphics/SVG/1.1/DTD/svg11.dtd">
<!-- Created with Vectornator (http://vectornator.io/) -->
<svg height="87.0pt" stroke-miterlimit="10" style="fill-rule:nonzero;clip-rule:evenodd;stroke-linecap:round;stroke-linejoin:round;" version="1.1" viewBox="0 0 87 87" width="87.0pt" xml:space="preserve" xmlns="http://www.w3.org/2000/svg" xmlns:xlink="http://www.w3.org/1999/xlink">
<defs/>
<g id="Untitled">
<g opacity="1">
<path d="M4.6 64.6L6.3 64.6L6.3 61.1C6.3 60.5 6.3 59.7 6.6 59.3C6.9 58.8 7.5 58.7 7.8 58.7C9.3 58.7 9.3 60.4 9.3 61L9.3 64.6L11 64.6L11 60.7C11 60.1 11 58.9 10.3 58.1C9.7 57.4 8.7 57.1 8.1 57.1C7 57.1 6.4 57.7 6.1 58L6.1 57.4L4.6 57.4L4.6 64.6" fill="#000000" fill-rule="nonzero" opacity="1" stroke="none"/>
<path d="M13.3 60.3C13.6 58.9 14.7 58.6 15.4 58.6C16.3 58.6 17.2 59.1 17.4 60.3L13.3 60.3M19 61.7C19.1 61.5 19.1 61.2 19.1 60.8C19.1 59 17.6 57 15.3 57C13.1 57 11.5 58.9 11.5 61C11.5 63.1 13.2 64.9 15.3 64.9C17 64.9 18.4 63.7 18.8 62.4L17 62.4C16.7 63 16.1 63.3 15.3 63.3C14.1 63.3 13.4 62.3 13.3 61.8L19 61.8L19 61.7Z" fill="#000000" fill-rule="nonzero" opacity="1" stroke="none"/>
<path d="M21.3 64.6L22.4 64.6L23.8 59.9L23.8 59.9L25.2 64.6L26.2 64.6L28.9 57.3L27 57.3L25.7 61.8L25.7 61.8L24.5 57.3L23.1 57.3L21.9 61.8L21.9 61.8L20.5 57.3L18.7 57.3L21.3 64.6" fill="#000000" fill-rule="nonzero" opacity="1" stroke="none"/>
<path d="M33.9 60.9C33.9 59.8 34.7 58.7 36.1 58.7C37.2 58.7 38.2 59.6 38.2 61C38.2 62.4 37.2 63.3 36.1 63.3C35.1 63.2 33.9 62.5 33.9 60.9M32.3 64.6L33.9 64.6L33.9 63.7C34.3 64.2 35 64.8 36.4 64.8C39.1 64.8 40 62.3 40 60.9C40 59 38.6 57 36.3 57C35.5 57 34.6 57.3 34 57.9L34 54.8L32.3 54.8L32.3 64.6Z" fill="#000000" fill-rule="nonzero" opacity="1" stroke="none"/>
<path d="M46.5 60.9C46.5 62.3 45.6 63.2 44.4 63.2C43.2 63.2 42.2 62.2 42.2 61C42.2 59.9 42.9 58.7 44.4 58.7C45.4 58.7 46.5 59.4 46.5 60.9M48.1 57.3L46.5 57.3L46.5 58.2L46.5 58.2C46.4 58.1 45.6 57 44.1 57C42.1 57 40.4 58.6 40.4 60.8C40.4 63.2 42.1 64.7 43.9 64.7C44.8 64.7 45.9 64.2 46.4 63.6L46.4 64.5L48 64.5L48 57.3L48.1 57.3Z" fill="#000000" fill-rule="nonzero" opacity="1" stroke="none"/>
<path d="M49 54.9L50.7 54.9L50.7 54.9L50.7 64.6L50.7 64.6L49 64.6L49 64.6L49 54.9L49 54.9Z" fill="#000000" fill-rule="nonzero" opacity="1" stroke="none"/>
<path d="M57.3 60.9C57.3 62.3 56.4 63.2 55.2 63.2C54 63.2 53 62.2 53 61C53 59.9 53.7 58.7 55.2 58.7C56.3 58.7 57.3 59.4 57.3 60.9M59 57.3L57.4 57.3L57.4 58.2L57.4 58.2C57.3 58.1 56.5 57 55 57C53 57 51.3 58.6 51.3 60.8C51.3 63.2 53 64.7 54.8 64.7C55.7 64.7 56.8 64.2 57.3 63.6L57.3 64.5L59 64.5L59 57.3Z" fill="#000000" fill-rule="nonzero" opacity="1" stroke="none"/>
<path d="M59.9 64.6L61.6 64.6L61.6 61.1C61.6 60.5 61.6 59.7 61.9 59.3C62.2 58.8 62.8 58.7 63.1 58.7C64.6 58.7 64.6 60.4 64.6 61L64.6 64.6L66.3 64.6L66.3 60.7C66.3 60.1 66.3 58.9 65.6 58.1C65 57.4 64 57.1 63.4 57.1C62.3 57.1 61.7 57.7 61.4 58L61.4 57.4L59.8 57.4L59.8 64.6" fill="#000000" fill-rule="nonzero" opacity="1" stroke="none"/>
<path d="M72.6 62.2C72.1 62.9 71.6 63.2 71 63.2C69.7 63.2 68.8 62.2 68.8 60.9C68.8 59.4 69.9 58.6 70.9 58.6C72 58.6 72.4 59.3 72.6 59.7L74.6 59.7C73.9 57.5 71.9 57 70.9 57C68.9 57 67 58.6 67 60.9C67 63.3 69 64.8 70.9 64.8C72.6 64.8 74 63.8 74.6 62.2L72.6 62.2" fill="#000000" fill-rule="nonzero" opacity="1" stroke="none"/>
<path d="M76.6 60.3C76.9 58.9 78 58.6 78.7 58.6C79.6 58.6 80.5 59.1 80.7 60.3L76.6 60.3M82.3 61.7C82.4 61.5 82.4 61.2 82.4 60.8C82.4 59 80.9 57 78.6 57C76.4 57 74.8 58.9 74.8 61C74.8 63.1 76.5 64.9 78.6 64.9C80.3 64.9 81.7 63.7 82.1 62.4L80.3 62.4C80 63 79.4 63.3 78.6 63.3C77.4 63.3 76.7 62.3 76.6 61.8L82.3 61.8L82.3 61.7Z" fill="#000000" fill-rule="nonzero" opacity="1" stroke="none"/>
<path d="M44.9 32.1L47.6 27.4L56.8 26.8L57.1 26.2L48.6 25.6L50.6 22.2L66.3 22.2C71.1 22.2 74.7 23.9 73.3 29C72.9 30.5 70.9 34.4 65.1 36C66.3 36.1 69.4 37.5 68.8 41C67.9 47.2 59.8 50.2 55.4 50.2L36.8 50.2L36 46.6L45.7 45.9L46 45.3L35.4 44.7L34.3 40.4L49.3 39.5L49.6 38.9L22.6 37.2L23.9 35L52.9 33.1L53.2 32.5L44.9 32.1M57 33L59.7 33C61.5 33 63.3 32.2 64 30.5C64.6 29 63.8 27.7 62.7 27.7L60.1 27.7L57 33ZM53.9 38.3L50.7 43.9L53.8 43.9C55.2 43.9 57.8 43.2 58.6 41.2C59.3 39.3 58 38.3 57.1 38.3L53.9 38.3ZM30.5 47L28.6 50.2L15.3 50.2L16.6 48L30.5 47ZM31.5 22.2L42.2 22.2L43 25.2L30.2 24.4L31.5 22.2ZM43.6 27.6L44.8 32L26.5 30.8L27.8 28.6L43.6 27.6ZM34.3 40.5L32 44.5L19 43.8L20.3 41.6L34.3 40.5Z" fill="#000000" fill-rule="nonzero" opacity="1" stroke="none"/>
</g>
</g>
</svg>
