<?xml version="1.0" encoding="UTF-8"?>
<svg width="87px" height="87px" viewBox="0 0 87 87" version="1.1" xmlns="http://www.w3.org/2000/svg" xmlns:xlink="http://www.w3.org/1999/xlink">
    <!-- Generator: sketchtool 61.2 (101010) - https://sketch.com -->
    <title>A5882D67-D2A7-42FF-8DAB-027CA8EEBE8A</title>
    <desc>Created with sketchtool.</desc>
    <g id="Asset-Artboard-Page" stroke="none" stroke-width="1" fill="none" fill-rule="evenodd">
        <g id="Icons/logos/brand/adidas_originals-Icons/logos/brand/nike" fill="#000">
            <path d="M12.9870759,57.4414929 C10.6540591,57.349211 8.74529974,56.7104277 7.25280814,55.5247439 C6.96797235,55.2982334 6.28924023,54.6195014 6.06153139,54.3326681 C5.45630528,53.5716412 5.04483142,52.8309882 4.77038235,52.009239 C3.92586221,49.4796735 4.36050644,46.1603179 6.01359269,42.5173759 C7.42898288,39.3985639 9.61299024,36.3053191 13.4233181,32.0211971 C13.9846004,31.3908032 15.6560632,29.5471606 15.6668494,29.5471606 C15.6708443,29.5471606 15.5797607,29.7049588 15.4651073,29.8971131 C14.4743741,31.5565912 13.6266581,33.5112918 13.1648486,35.203528 C12.4229972,37.918856 12.5124828,40.2490764 13.4269135,42.0559659 C14.0577069,43.3007743 15.1391241,44.3789955 16.3551692,44.9750334 C18.4840471,46.0180996 21.6008618,46.1043894 25.4071947,45.2275105 C25.6692596,45.1667883 38.655055,41.7195961 54.2646955,37.566906 C69.8743358,33.4138164 82.6480026,30.0185578 82.65,30.0213543 C82.6543943,30.0249497 46.3843717,45.545504 27.556047,53.596809 C24.5742597,54.871579 23.7768794,55.1935673 22.3750718,55.685738 C18.7916537,56.9441289 15.5817582,57.5445611 12.9870759,57.4414929" id="logo"></path>
        </g>
    </g>
</svg>