<?xml version="1.0" encoding="UTF-8"?>
<svg width="90px" height="41.4228668px" viewBox="0 0 90 41.4228668" version="1.1" xmlns="http://www.w3.org/2000/svg" xmlns:xlink="http://www.w3.org/1999/xlink">
    <title>Icons/logos/brand/northface</title>
    <g id="APR---SALES-PAGE-3.0" stroke="none" stroke-width="1" fill="none" fill-rule="evenodd">
        <g id="Icons/logos/brand/northface" fill="#000000">
            <path d="M58.3571831,2.32818305 L58.3571831,0 L49.0259507,0 L49.0259507,12.7830428 L58.3571831,12.7830428 L58.3571831,10.6744996 L51.62251,10.6744996 L51.62251,7.20418905 L57.5203917,7.20418905 L57.5203917,4.91993399 L51.62251,4.91993399 L51.62251,2.32818305 L58.3571831,2.32818305 Z M55.7606237,14.1008822 L55.7606237,19.0208162 L50.6543015,19.0208162 L50.6543015,14.1008822 L48.0149551,14.1008822 L48.0149551,26.8406071 L50.6543015,26.8406071 L50.6543015,21.1293593 L55.7606237,21.1293593 L55.7606237,26.8406071 L58.3571831,26.8406071 L58.3571831,14.1008822 L55.7606237,14.1008822 Z M58.3571831,30.4414814 L58.3571831,28.1584466 L49.0259507,28.1584466 L49.0259507,41.1159811 L58.3571831,41.1159811 L58.3571831,38.7890182 L51.62251,38.7890182 L51.62251,35.3620255 L57.5203917,35.3620255 L57.5203917,33.2540925 L51.62251,33.2540925 L51.62251,30.4414814 L58.3571831,30.4414814 L58.3571831,30.4414814 Z M47.5302395,0 L44.9336802,0 L44.9336802,4.91993399 L39.8285804,4.91993399 L39.8285804,0 L37.232021,0 L37.232021,12.7830428 L39.8285804,12.7830428 L39.8285804,7.0724051 L44.9336802,7.0724051 L44.9336802,12.7830428 L47.5302395,12.7830428 L47.5302395,0 Z M26.0536128,0 L26.0536128,2.32818305 L30.0144661,2.32818305 L30.0144661,12.7830428 L32.6110255,12.7830428 L32.6110255,2.32818305 L36.5718788,2.32818305 L36.5718788,0 L26.0536128,0 Z M17.8678493,13.7494584 C13.7749676,13.7494584 11.618503,16.0776414 11.618503,20.4704396 C11.618503,25.0828777 13.7749676,27.3671328 17.8678493,27.3671328 C21.960731,27.3671328 24.0731861,25.0828777 24.0731861,20.4704396 C24.0731861,16.0776414 21.960731,13.7494584 17.8678493,13.7494584 L17.8678493,13.7494584 Z M14.4351098,20.4704396 C14.4351098,17.5272648 15.5793563,16.0776414 17.8678493,16.0776414 C20.3323802,16.0776414 21.4766268,17.5272648 21.4766268,20.4704396 C21.4766268,23.5899365 20.3323802,25.0828777 17.8678493,25.0828777 C15.5793563,25.0828777 14.4351098,23.5899365 14.4351098,20.4704396 L14.4351098,20.4704396 Z M7.87769711,14.1008822 L7.87769711,23.1061185 L2.77259731,14.1008822 L0,14.1008822 L0,26.8406071 L2.46453094,26.8406071 L2.46453094,17.8786887 L7.70165918,26.8406071 L10.4742565,26.8406071 L10.4742565,14.1008822 L7.87769711,14.1008822 Z M19.9803044,33.4291943 L19.9803044,30.4414814 L26.5377171,30.4414814 L26.5377171,28.1584466 L17.383745,28.1584466 L17.383745,41.1159811 L19.9803044,41.1159811 L19.9803044,35.7134494 L25.7455464,35.7134494 L25.7455464,33.4291943 L19.9803044,33.4291943 Z M47.0467465,16.3851373 L47.0467465,14.1008822 L36.5718788,14.1008822 L36.5718788,16.3851373 L40.4887226,16.3851373 L40.4887226,26.8406071 L43.1292914,26.8406071 L43.1292914,16.3851373 L47.0467465,16.3851373 Z M30.8066367,21.9646011 C31.6428169,21.9646011 32.3029591,22.095775 32.6110255,22.4471988 L33.0951298,26.8406071 L36.043765,26.8406071 L36.043765,26.5331112 C35.7356986,26.3567892 35.5596607,25.5666956 35.5596607,24.0725341 C35.5596607,22.272097 34.8995185,21.3050713 33.9313099,20.8218635 C35.2515943,20.2947277 35.9117365,19.3283121 35.9117365,17.7029768 C35.9117365,15.4187217 34.5914521,14.1008822 31.8188548,14.1008822 L25.3934706,14.1008822 L25.3934706,26.8406071 L28.0340394,26.8406071 L28.0340394,21.9646011 L30.8066367,21.9646011 L30.8066367,21.9646011 Z M28.0340394,19.8115199 L28.0340394,16.3851373 L31.290741,16.3851373 C32.6110255,16.3851373 33.2711677,16.8683451 33.2711677,18.0104726 C33.2711677,19.1526002 32.6110255,19.8115199 31.1587126,19.8115199 L28.0340394,19.8115199 Z M32.6110255,28.1584466 L29.4863523,28.1584466 L24.9093663,41.1159811 L27.6819636,41.1159811 L28.6941816,38.3052003 L33.4472056,38.3052003 L34.2393763,41.1159811 L37.055983,41.1159811 L32.6110255,28.1584466 L32.6110255,28.1584466 Z M30.9826747,31.1004012 L32.6110255,36.1972673 L29.3543239,36.1972673 L30.9826747,31.1004012 Z M45.4183957,32.4182406 L48.0149551,32.4182406 C47.8823154,31.2767232 47.5302395,30.3103076 46.7374576,29.4750658 C45.5938224,28.5086502 44.2735379,27.8497305 42.4691492,27.8497305 C40.6647605,27.8497305 39.3444761,28.5086502 38.2002296,29.6513879 C37.232021,30.7929053 36.5718788,32.4182406 36.5718788,34.5713218 C36.5718788,39.139832 38.5082959,41.4228668 42.2931113,41.4228668 C45.5938224,41.4228668 47.3975999,39.7975315 48.0149551,36.6792549 L45.4183957,36.6792549 C45.0663198,38.1721962 43.9214621,38.9635099 42.4691492,38.9635099 C40.3126846,38.9635099 39.3444761,37.5144966 39.3444761,34.7024957 C39.3444761,31.6281471 40.3126846,30.1339856 42.4691492,30.1339856 C43.9214621,30.1339856 44.7582535,30.9692273 45.4183957,32.4182406 L45.4183957,32.4182406 Z M12.7627495,40.9408792 L12.806759,40.9408792 L12.7627495,40.9408792 Z M12.806759,40.9408792 C13.2468538,40.9408792 13.5989296,40.7645572 13.8635978,40.5455274 C14.0836452,40.2819595 14.2590719,39.9305357 14.2590719,39.447938 C14.2590719,38.9201921 14.0830339,38.5687682 13.8635978,38.3491283 C13.5995409,38.1300985 13.247465,37.9977044 12.806759,37.9977044 L12.7627495,37.9977044 C12.2346357,37.9977044 11.8825599,38.1300985 11.6625125,38.3491283 C11.4430763,38.5681581 11.3104366,38.9201921 11.3104366,39.447938 L11.3104366,39.4906457 C11.3104366,39.9305357 11.4424651,40.2819595 11.6625125,40.5455274 C11.8825599,40.7645572 12.235247,40.9408792 12.7627495,40.9408792 L12.806759,40.9408792 Z M12.7627495,41.292321 C12.1466168,41.292321 11.706522,41.0732733 11.3984556,40.7645572 C11.0903892,40.4570613 10.9583608,40.0183916 10.9583608,39.4906457 L10.9583608,39.447938 C10.9583608,38.831726 11.0903892,38.3930563 11.3984556,38.0861705 C11.706522,37.7786746 12.1466168,37.6462806 12.7627495,37.6462806 L12.806759,37.6462806 C13.3348728,37.6462806 13.7749676,37.7786746 14.0830339,38.0861705 C14.3911003,38.3936664 14.6111477,38.8323361 14.6111477,39.447938 C14.6111477,40.0190017 14.3911003,40.4570613 14.0830339,40.7645572 C13.745787,41.1042795 13.2858945,41.2944473 12.806759,41.292321 L12.7627495,41.292321 L12.7627495,41.292321 Z M12.9387874,39.2716159 L12.9827969,39.2716159 C13.1588348,39.2716159 13.2468538,39.1831498 13.2468538,38.96412 L13.2468538,38.9201921 C13.2468538,38.9201921 13.2028443,38.9201921 13.2028443,38.8762641 C13.1588348,38.8323361 13.0708159,38.8323361 12.9387874,38.8323361 L12.4546831,38.8323361 L12.4546831,39.272226 L12.9387874,39.272226 L12.9387874,39.2716159 L12.9387874,39.2716159 Z M13.2468538,39.5791118 L13.5989296,40.0190017 C13.6429391,40.1062476 13.5989296,40.1941035 13.5549202,40.2380315 C13.4669012,40.3264976 13.3348728,40.2819595 13.2908633,40.2380315 L12.8507685,39.6230398 L12.4546831,39.6230398 L12.4546831,40.1056375 C12.4546831,40.1941035 12.3666642,40.2819595 12.2786452,40.2819595 C12.1906263,40.2819595 12.1026073,40.1934934 12.1026073,40.1056375 L12.1026073,38.6566242 C12.1026073,38.5681581 12.1906263,38.4815224 12.2786452,38.4815224 L12.9827969,38.4815224 C13.1588348,38.4815224 13.3348728,38.5242301 13.4228917,38.6126962 C13.4669012,38.6566242 13.5109107,38.6566242 13.5109107,38.7011623 C13.5989296,38.7896283 13.5989296,38.8762641 13.5989296,38.9647302 C13.5989296,39.3155439 13.5109107,39.4906457 13.2468538,39.5791118 Z M60.1609606,0 C68.3473353,0 75.4322505,2.98710278 81.1534831,8.69774044 C87.0507535,14.58409 90,21.6125672 90,29.8264897 L90,41.1159811 L78.0294212,41.1159811 L78.0294212,29.4750658 C78.0294212,24.9077759 76.4010704,20.9536474 73.1003593,17.7029768 C72.3075774,16.8683451 71.4720085,16.2094254 70.5037999,15.5505056 C67.863231,13.7494584 64.7385579,12.9587547 61.4818563,12.9587547 L60.1615718,12.9587547 L60.1615718,0 L60.1609606,0 Z M76.8839522,41.1159811 L67.5539422,41.1159811 L67.5539422,32.1107447 C67.5539422,30.6178035 67.0704491,29.4750658 66.0582311,28.5086502 C65.0900225,27.4995269 63.769738,27.0157089 62.4494536,27.0157089 L60.1609606,27.0157089 L60.1609606,14.1008822 L61.481245,14.1008822 C64.9133733,14.1008822 67.8620085,15.0672978 70.5031886,17.044057 C71.1633309,17.3515529 71.8234731,18.0104726 72.3069661,18.4936804 C75.4322505,21.6131773 76.8839522,25.2152718 76.8839522,29.4756759 L76.8839522,41.1159811 L76.8839522,41.1159811 Z M66.4103069,41.1159811 L60.1603494,41.1159811 L60.1603494,28.1584466 L62.4494536,28.1584466 C63.4616717,28.1584466 64.4298803,28.5086502 65.2654492,29.299964 C65.9255914,29.9588837 66.4103069,30.9692273 66.4103069,32.1107447 L66.4103069,41.1159811 L66.4103069,41.1159811 Z" id="logo"></path>
        </g>
    </g>
</svg>