<?xml version="1.0" encoding="UTF-8"?>
<svg width="87px" height="87px" viewBox="0 0 87 87" version="1.1" xmlns="http://www.w3.org/2000/svg" xmlns:xlink="http://www.w3.org/1999/xlink">
    <!-- Generator: sketchtool 61.2 (101010) - https://sketch.com -->
    <title>27D7D1A3-2B94-441F-8C88-96B804402F1A</title>
    <desc>Created with sketchtool.</desc>
    <g id="Asset-Artboard-Page" stroke="none" stroke-width="1" fill="none" fill-rule="evenodd">
        <g id="Icons/logos/brand/adidas_originals-Copy-9-Icons/logos/brand/puma" fill="#000">
            <path d="M69.0514389,58.3521526 C70.3641662,58.3521526 71.3936581,59.3791819 71.3936581,60.6783621 C71.3936581,61.9627553 70.3641662,63.0070254 69.0896154,63.0070254 C67.8015283,63.0070254 66.7671103,61.970144 66.7671103,60.6783621 C66.7671103,59.411201 67.8015283,58.3521526 69.0514389,58.3521526 Z M23.4398879,44.0094968 L23.4386565,59.7621599 C23.4386565,60.2448872 23.8425709,60.6352625 24.3179086,60.6463459 C24.7957116,60.6352625 25.1996258,60.2448872 25.1996258,59.7621599 L25.1996258,59.7621599 L25.204552,44.0094968 L30.3914043,44.0094968 L30.3914043,61.3741312 C30.3914043,62.2250563 29.7104147,62.9195912 28.8582531,62.9195912 L28.8582531,62.9195912 L19.7837224,62.9195912 C18.9377191,62.9195912 18.2481076,62.2250563 18.2481076,61.3741312 L18.2481076,61.3741312 L18.2481076,44.0094968 L23.4398879,44.0094968 Z M49.5601073,44.0094968 C50.4898488,44.0094968 51.2484209,44.7656064 51.2484209,45.7051992 L51.2484209,45.7051992 L51.2484209,62.9195912 L46.0517096,62.9195912 L46.0517096,47.1287516 C46.0480156,46.6447929 45.6514927,46.2618169 45.1712289,46.2618169 C44.6872704,46.2618169 44.298137,46.6361721 44.2919788,47.1152046 L44.2919788,47.1152046 L44.2919788,62.9195912 L39.116203,62.9195912 L39.116203,47.1152046 C39.1051195,46.6361721 38.7159861,46.2618169 38.2307962,46.2618169 C37.7480691,46.2618169 37.3564721,46.6447929 37.3527783,47.1287516 L37.3527783,47.1287516 L37.3527783,62.9195912 L32.1560687,62.9195912 L32.1560687,45.7051992 C32.1560687,44.7656064 32.9134077,44.0094968 33.8431484,44.0094968 L33.8431484,44.0094968 Z M14.8172972,44.0094968 C15.7544282,44.0094968 16.4859074,44.7705324 16.4859074,45.7125888 L16.4859074,56.464348 C16.4859074,57.4076356 15.7261048,58.16744 14.7840485,58.16744 L9.5393165,58.16744 L9.5393165,62.9195912 L4.35,62.9195912 L4.35,44.0094968 L14.8172972,44.0094968 Z M63.4606791,44.0094968 C64.3928832,44.0094968 65.150224,44.7656064 65.150224,45.7051992 L65.150224,62.9195912 L59.960902,62.9195912 L59.960902,58.1723661 L58.1974763,58.1723661 L58.1974763,62.9195912 L53.010617,62.9195912 L53.010617,45.7051992 C53.010617,44.7656064 53.7679578,44.0094968 54.6976994,44.0094968 L63.4606791,44.0094968 Z M69.0896154,58.6908044 L69.056365,58.6908044 C68.0133358,58.6908044 67.1377707,59.5922216 67.1377707,60.6845196 C67.1377707,61.7805034 68.0133358,62.6745311 69.0896154,62.6745311 C70.1572838,62.6745311 71.0217558,61.7805034 71.0217558,60.6845196 C71.0217558,59.5897582 70.1572838,58.6908044 69.0896154,58.6908044 Z M68.7879185,59.3447021 C69.5107777,59.3447021 69.8949851,59.6180844 69.8949851,60.1402194 C69.8949851,60.4887137 69.6683992,60.79781 69.3519143,60.8901725 L69.3149699,60.9037186 L70.1782195,62.0255634 L69.5587958,62.0255634 L68.7620568,60.9652836 L68.7620568,62.0255634 L68.2559312,62.0255634 L68.2559312,59.3447021 L68.7879185,59.3447021 Z M68.8654931,59.8015676 L68.7620568,59.8015676 L68.7620568,60.530585 L68.8494836,60.530585 C69.2103023,60.530585 69.3999429,60.4025191 69.3999429,60.1463777 C69.3999429,59.9185597 69.2164597,59.8015676 68.8654931,59.8015676 Z M59.0767257,46.2716681 C58.5976932,46.2716681 58.2011712,46.6558762 58.1974764,47.1361401 L58.1974764,55.830156 L59.960902,55.830156 L59.960902,47.122594 C59.9485864,46.641098 59.5606852,46.2716681 59.0767257,46.2716681 Z M10.4210321,46.2618169 L9.53931657,46.2618169 L9.53931657,55.8264612 L10.4210321,55.8264612 C10.8791307,55.8264612 11.3039806,55.4619485 11.3002858,54.9385918 L11.3002858,47.1620018 C11.3039806,46.636172 10.8754359,46.2618169 10.4210321,46.2618169 Z M79.962061,24.5575631 C80.4940482,24.2423095 81.6996346,23.5366912 82.3966329,24.4258024 C82.9569444,25.1461989 82.4951432,26.3345445 81.9102108,26.9046985 C81.5407721,27.264286 80.8708668,27.6275576 79.5987893,28.227277 C79.1665436,28.4341585 78.4621566,28.9599883 78.187543,29.1742594 C76.8243342,30.2136034 75.8354816,32.5742849 74.7358038,35.1590896 C74.7358038,35.1590896 74.2666234,36.4299455 72.199018,37.7956169 C71.8517559,38.0209706 72.1657773,38.214306 72.5450585,38.700728 C73.0314806,39.3447715 74.0067872,41.9677616 73.8811742,45.9601081 C73.8602386,46.6694212 74.1471678,46.9772852 74.4698102,47.5572914 C75.0301217,48.5584589 76.1334943,48.3343366 76.1064012,49.6482951 C76.0682247,51.4104886 77.3710997,51.7860856 76.953642,52.6012967 C76.6482406,53.1936274 76.7541386,53.7687074 76.7553708,54.3474912 C76.7553708,54.6405779 76.9142333,55.0666564 76.3083566,55.0358687 C73.8306927,54.8856358 73.9969351,51.5619624 74.0425003,50.4191723 C74.081908,50.2677083 73.9686107,49.9967885 73.9489064,49.9844738 C73.8257666,49.8945844 72.2827597,48.6951554 72.1805458,48.5929406 C70.3062855,46.6866621 69.0699113,44.9737189 68.3803025,43.2127461 C67.923437,42.0391789 67.4530245,40.8828524 66.648896,40.1390576 C65.7474701,39.3164569 64.6428661,38.8534331 63.6737177,38.8485071 C56.7813129,38.812794 55.3639189,35.7895862 53.4884176,34.2823029 C53.4317786,34.2404316 53.2593692,34.1431439 53.1608589,34.1357543 C53.0561816,34.1431439 52.9736712,34.2675247 52.9059488,34.3253958 C52.1818583,35.0839679 51.4528409,35.3314894 50.4726091,35.3314894 C48.1439458,35.3314894 45.6391791,33.2909867 45.197091,33.7453896 C44.8596713,34.1000413 45.152757,34.8302891 44.5333439,34.9522082 C43.6380754,35.1319966 42.7107973,34.2478212 42.7846869,33.497869 C42.9189101,32.1568175 44.2919799,31.7639893 45.4951037,31.6273034 C46.4925676,31.5213939 47.3040946,31.7947771 47.4912726,31.8157128 C48.046658,31.8932971 48.1439458,31.2209186 48.0528153,30.7874513 C47.9493694,30.3170397 47.510976,30.2185295 47.0528792,30.081833 C46.4950302,29.9155907 45.875617,30.3786145 45.4593907,30.2369919 C44.9717373,30.0621296 44.9323295,29.8133768 44.5296491,29.4525677 C44.0136715,29.0043222 43.4176469,28.8836353 43.4201095,28.2519074 C43.4201095,27.6669655 44.1318861,27.6189377 44.3338415,27.0820341 C44.4372874,26.8135778 44.407731,26.5340373 44.4988622,26.3702584 C44.7389941,25.9318553 45.1909335,25.9540222 45.5529739,25.5993706 C46.0480168,25.1080225 46.2943061,24.1647349 46.5504475,24.1253271 C46.8078212,24.0834567 47.2363624,25.0316703 47.4912726,24.9466964 C47.7621914,24.8543445 48.1402519,24.0575949 48.5096809,24.1043923 C48.6673024,24.1253271 49.2941149,25.3801734 49.2941149,25.3801734 C54.3442784,25.6301575 60.5778614,31.7492119 61.3807577,32.3686347 L61.4250947,32.4044855 C61.8805995,32.7841054 63.5046254,34.405059 66.390292,35.6701412 C67.6192669,36.2095172 68.8531776,36.4410291 69.9984311,36.3560551 C71.5254188,36.2464518 73.2334359,34.9054108 74.2838643,33.0791791 C75.6002757,30.7936087 76.1605873,26.8135778 79.962061,24.5575631 Z" id="logo"></path>
        </g>
    </g>
</svg>