<?xml version="1.0" encoding="UTF-8"?>
<svg width="87px" height="87px" viewBox="0 0 87 87" version="1.1" xmlns="http://www.w3.org/2000/svg" xmlns:xlink="http://www.w3.org/1999/xlink">
    <!-- Generator: sketchtool 61.2 (101010) - https://sketch.com -->
    <title>02090E0A-22A9-4844-88E5-2D4F79EE97E1</title>
    <desc>Created with sketchtool.</desc>
    <g id="Asset-Artboard-Page" stroke="none" stroke-width="1" fill="none" fill-rule="evenodd">
        <g id="Icons/logos/brand/adidas_originals-Copy-4-Icons/logos/brand/timberland" fill="#000">
            <path d="M72.017108,48.7104747 C74.5806296,48.7864375 76.9305242,49.3637551 79.4177504,49.6220288 L81.2488373,49.7587619 C79.2651599,51.2172485 75.8776494,51.2476336 73.7413814,50.0170355 C73.1157601,49.6372214 72.5053978,49.2118294 72.017108,48.7104747 Z M9.47023567,36.6323833 L10.2484475,40.0659038 C10.3247428,40.4305254 10.095857,40.7191842 9.80593492,40.8559173 C9.47023567,40.9926504 9.16505454,40.8103396 8.92090964,40.6128362 C8.38684266,39.8228227 8.28002927,38.7745354 7.45604022,38.1668327 C7.22715438,38.1364476 7.01352759,38.1516401 6.96775042,38.4099138 L6.99826853,49.2726002 C7.08982287,49.5764517 7.41026306,49.8954956 7.7459623,49.9410733 C8.02062531,49.880303 8.28002927,49.5156814 8.29528832,49.3637557 L8.29528832,43.3778837 C8.24951116,43.0284546 7.27293155,42.8917215 7.56285362,42.5422924 C8.44787889,42.1169005 9.39394038,41.7978566 10.2789657,41.3420795 C10.5383696,41.3116944 10.919846,41.3572721 10.9961413,41.6307383 L10.9961413,49.3637557 C10.9656232,49.7891476 11.5454673,49.7283773 11.6217626,50.0929989 C11.7590941,49.7891476 12.1558296,49.7283773 12.2016067,49.3637557 L12.2016067,43.4842317 C12.1710887,42.9980695 11.2402862,42.9069141 11.5149492,42.5422924 C12.3694564,42.1624782 13.2087045,41.782664 14.0326936,41.3724646 C14.3226156,41.2661167 14.7803873,41.2509241 14.8719417,41.5851606 C14.8872007,41.8434343 14.8261644,42.0105525 14.948237,42.2080559 C15.3144543,42.3903667 15.3297134,41.8738194 15.5738582,41.7370863 C16.0774071,41.2053464 16.9929505,41.220539 17.6185718,41.4484275 C18.1373797,41.5395829 18.1831568,42.2536336 18.6867058,42.2080559 C18.9308506,41.9042045 19.0681822,41.5547755 19.4496586,41.4028498 C20.0600208,41.3420795 20.7466784,41.3268869 21.2197091,41.7067012 C22.3183612,42.8157587 22.3336202,44.4261709 22.5014699,45.8998501 C22.6540604,47.1760258 22.7456147,48.3914313 22.8982053,49.7283773 C22.9745006,49.9258807 23.081314,49.8347253 23.2339046,49.9410733 L23.2339046,49.6372219 L23.2186454,39.002424 C23.2339046,38.2579881 22.5167289,38.2579881 22.6235423,37.7566333 C23.2949407,36.9818123 24.4698881,37.0881603 25.263359,36.4500724 C25.522763,36.4500724 25.812685,36.5412279 25.9042394,36.8146941 L25.9194984,41.5547755 C26.1789024,41.8282417 26.331493,41.3724646 26.6519332,41.2661167 C27.3996269,41.0534207 28.1320616,41.4180424 28.5898333,41.9193971 C29.4901177,42.8765289 29.6884854,44.1375121 29.8715941,45.3833027 L29.9173712,45.3833027 C30.1157389,43.8336608 30.4361792,41.9801674 32.0688982,41.3724646 C32.8013329,41.0989984 33.7321353,41.114191 34.3882747,41.5851606 C35.3801134,42.4359444 36.0209938,43.8792385 35.7005536,45.2009919 C34.5103472,45.7479244 33.3964361,46.218894 32.4045974,46.6594785 C32.4961518,47.2671812 32.6945195,47.9052691 33.2438455,48.2698908 C33.6253219,48.437009 34.174648,48.6648975 34.5256063,48.3002759 C34.6934558,47.9964245 34.6171606,47.4191069 34.998637,47.3887218 C35.3190772,47.3887218 35.6700355,47.4191069 35.807367,47.7229583 C36.2041025,48.4673942 35.9446985,49.318178 35.4869268,49.9106882 C34.723974,50.7766645 33.381177,50.8374348 32.2977841,50.5639686 C30.6498059,50.0474213 30.2530705,48.2698908 29.9478894,46.8114041 C29.8715941,48.3154684 29.6121901,50.0929989 28.0405073,50.6399314 C27.1097049,50.9133976 25.8584623,50.7007017 25.4159496,50.0929989 C25.263359,49.9258807 25.3091362,49.6068368 25.0039551,49.6068368 C24.4851472,49.6068368 24.5614425,50.5791612 23.8747849,50.6399314 C23.5696038,50.7462794 23.371236,50.4728132 23.2491636,50.305695 C23.1881274,50.4880057 23.1270911,50.5183909 22.837169,50.5791612 L22.7869184,50.5797806 C22.4192036,50.5838712 20.1621902,50.605583 19.9532074,50.5639686 C19.7243216,50.5183909 19.6938035,50.3816578 19.6175082,50.2753098 C19.4496586,49.7891476 20.0752799,50.0170361 20.105798,49.6068368 C20.2278704,47.7077657 20.0600208,45.8846575 19.8006169,44.0615493 C19.7548397,43.6665425 19.6022492,43.332306 19.2512908,43.1651877 C18.9613688,43.0284546 18.6714467,43.3930763 18.6409285,43.5601945 L18.6409285,49.3941408 C18.5951514,49.9258807 19.5259539,49.8195327 19.1139593,50.3816578 C18.3357474,50.761472 17.0387276,50.548776 16.1079252,50.5639686 C15.9858528,50.5031983 15.8790394,50.5335835 15.7569669,50.4728132 C15.5738582,50.4424281 15.512822,50.0170361 15.6654125,49.9714585 C16.0316299,49.9258807 16.1689615,49.5308739 16.2605158,49.2422151 C16.2757748,47.4646846 16.2757748,43.5905797 16.1994795,43.3019209 C16.1079252,43.0436472 15.8027441,42.9372992 15.5585992,43.013262 C15.2534181,43.1348026 15.0703094,43.2107654 14.963496,43.6665425 L14.963496,49.3941408 C14.8872007,49.8651104 15.7417078,49.7739551 15.4365267,50.305695 L15.1466047,50.5183909 C14.1395069,50.6399314 13.0255958,50.6095463 11.98798,50.5639686 C11.7896123,50.4424281 11.5607264,50.305695 11.5454673,50.0474213 C11.4844311,50.2449247 11.453913,50.3816578 11.2555453,50.4880057 C10.0500798,50.548776 9.18031359,50.6703166 7.95958908,50.5183909 C7.91381192,50.4424281 7.77648041,50.4120429 7.70018513,50.305695 C7.16611815,50.7310869 6.35738817,50.548776 5.65547157,50.5943538 C4.73992819,50.5943538 4.02275254,50.7310869 3.24454067,50.4120429 C3.07669105,50.3208875 3.07669105,50.1081916 3.12246821,49.9714585 C3.45816745,49.8499179 3.65653519,49.6524145 3.76334858,49.3029854 L3.76334858,38.5466469 C3.73283047,38.2124104 3.53446274,38.2579881 3.4429084,38.1668327 C3.10720916,38.1364476 2.83254613,38.4402989 2.67995557,38.7137652 C2.06959332,39.4430085 2.22218388,41.1445761 0.848868808,40.901495 C0.66576013,40.7495693 0.482651454,40.6584139 0.436874285,40.4305254 C0.574205792,39.0631942 0.87938692,37.8933665 1.16930899,36.6019981 C1.32189956,36.4804576 1.41345389,36.2677616 1.64233974,36.2981468 C1.85596653,36.2829542 2.05433426,36.4044947 2.1458886,36.6019981 C4.0380116,36.6475758 6.37264722,36.6475758 8.44787889,36.6019981 C8.64624662,36.2221839 9.39394038,36.0246805 9.47023567,36.6323833 Z M58.406032,42.4663295 C59.0926896,43.9552012 59.199503,45.7327317 59.3520936,47.4191067 C59.4283889,48.1787351 59.1689849,49.4701035 59.9319378,49.910688 C60.0692693,50.0474211 60.0082331,50.2905022 59.9014197,50.4272353 L59.6420157,50.5639684 C58.665436,50.6095461 57.6125611,50.7310867 56.5291679,50.4576205 C56.4070955,50.3360799 56.3460592,50.1385765 56.4223545,49.9866508 C57.3073799,49.5764515 56.8801262,48.1787351 56.9411625,47.4191067 L56.8177372,46.6384986 C56.6300543,45.4671756 56.4098698,44.3032491 55.8730285,43.2715356 C55.7967332,43.1348025 55.6441426,43.0740322 55.476293,43.1196099 L55.2474071,43.3778836 L55.2931843,49.2574075 C55.3389614,49.5308737 55.4305158,49.8803028 55.766215,49.9410731 C55.9188056,50.0929988 55.7967332,50.3056948 55.7204379,50.4576205 C54.7438582,50.7310867 53.6146879,50.7007015 52.6075901,50.6095461 C52.4092223,50.5639684 52.2566318,50.4120427 52.1803365,50.2449245 C51.9056735,50.5335833 51.6004923,50.6247387 51.1427206,50.6703164 C50.3797677,50.7007015 49.9677731,50.2905022 49.4947424,49.910688 C49.2048202,50.153769 48.8233438,50.3816576 48.4723855,50.5639684 C47.7552097,50.9285901 46.8244073,50.685509 46.1682677,50.3360799 C45.2222062,49.8195325 45.0848746,48.8320156 45.0696156,47.8596913 C44.9933203,46.4163973 46.2598221,45.4288803 47.4195105,44.8667553 C47.7857279,44.7148296 48.4723855,44.6844444 48.6249761,44.2590525 C48.6554942,43.7121201 48.6402351,42.9221065 48.0756499,42.4967146 C47.7246916,42.4967146 47.3432152,42.3447889 47.0075159,42.4967146 C46.7328529,42.8765288 47.3432152,42.8157585 47.4500286,43.1651876 C47.5415829,43.4842315 47.4500286,43.9096235 47.2669199,44.137512 C46.9159616,44.5477113 46.2750811,44.4565559 45.8020504,44.3654005 C45.4968692,44.2134748 45.3595377,43.9552012 45.2222062,43.6665424 C45.1459109,43.1651876 45.1611699,42.6030626 45.4663511,42.2080558 C46.3666355,41.1749611 47.9383185,41.2965017 49.2048202,41.4028497 C49.8762188,41.4332348 50.5476173,41.9801673 50.745985,42.5726774 C51.3105702,44.5325188 51.3258293,46.6442858 51.4479017,48.7408602 C51.6004923,49.4701035 51.9972278,48.5889345 52.1803365,49.2877927 L52.2871499,49.9410731 C52.6075901,49.9410731 52.6838854,49.5764515 52.7906988,49.3637555 L52.7754398,43.362691 C52.6991445,42.8765288 51.8446372,42.8765288 52.1345593,42.3599815 C52.8364759,41.8434342 53.7367604,41.6459308 54.5149723,41.2205389 C54.8201534,41.1293834 55.1253346,41.2053463 55.216889,41.4788125 C55.3237024,41.6003531 55.1405937,41.8434342 55.3542205,41.919397 C55.6441426,41.5395828 55.9493238,41.1597686 56.4223545,41.1141909 C57.3531571,41.0686132 58.0550737,41.6915085 58.406032,42.4663295 Z M66.1881502,36.571613 L66.2491865,38.2731805 L66.3102227,48.7408596 C66.4322952,48.9687481 66.7374764,48.8168224 66.8290307,49.0599035 C66.9358441,49.5764508 66.5391086,49.7587617 66.1576322,49.9106873 C65.3794202,50.1841535 64.6317264,50.5791603 63.7467009,50.6095454 C63.3804836,50.5031974 63.8535144,50.1233832 63.487297,49.9714576 C63.0753025,50.412042 62.5107173,50.8830116 61.885096,50.6703157 C60.7254075,50.5639677 60.054009,49.5612583 59.7488279,48.5585488 C59.2910561,46.2188934 59.5046829,43.5753866 60.84748,41.7370859 C61.2442155,41.2813089 61.7630234,41.1141907 62.3123496,41.0382278 C62.709085,41.1141907 63.0447843,41.3268866 63.3804836,41.52439 L63.487297,41.3420792 L63.5025561,38.5770319 C63.2584112,38.2427954 62.5107173,38.0756771 62.8464166,37.5135522 C63.0753025,37.3464339 63.3804836,37.3920116 63.6551466,37.3312413 C64.3570633,36.9970049 65.0894981,36.6931535 65.7761557,36.3437245 C65.9745235,36.2829542 66.1118549,36.4196873 66.1881502,36.571613 Z M44.7796936,36.921042 L44.7644346,49.0902896 C44.6423621,49.6979923 45.7410142,49.6220295 45.405315,50.2753099 C44.9628023,50.8222423 44.0472589,50.5639687 43.3453422,50.6399315 C42.7044619,50.5639687 41.7584003,50.8678201 41.5600325,50.1233842 C41.5142553,49.5916443 42.1856539,49.637222 42.1398767,49.0902896 L42.1246176,43.0892249 C42.0178043,43.4994243 42.0483223,44.107127 41.5905506,44.2894378 C41.3311467,44.319823 41.0412246,44.2286676 40.873375,44.0463567 C40.6902663,43.8336608 40.7665615,43.3171134 40.5224166,43.3171134 C39.6831684,43.4538466 39.2559148,44.319823 39.0575471,44.988296 C38.8134021,46.3556272 38.9354746,47.9508469 38.9507337,49.3941409 C39.042288,49.7739551 39.7594637,49.7131849 39.4237644,50.2601173 C39.301692,50.4576207 38.9659927,50.5943539 38.9659927,50.5943539 C38.9659927,50.5943539 38.460884,50.6208226 37.624353,50.6243518 L37.4400869,50.6247389 C36.4940254,50.6247389 35.9904765,50.5943539 35.9904765,50.5943539 C35.853145,50.5639687 35.6547773,50.3512727 35.6242591,50.1537693 C35.5021867,49.9714585 35.7005544,49.74357 35.8378859,49.6827997 C35.9904765,49.6676071 36.1735852,49.4397186 36.2041033,49.287793 L36.2193623,43.2867283 C36.1735852,42.770181 35.334337,42.8917215 35.5174457,42.3599816 C36.2651396,41.7067012 37.3027555,41.7067012 38.1114855,41.1901538 C38.3251123,41.220539 38.5692572,41.1293836 38.7371068,41.2661167 C39.0270289,41.6459309 38.7676249,42.2992113 38.9507337,42.7549884 L39.0575471,42.7549884 C39.5305778,42.1169005 40.1409401,41.1901538 41.0870017,41.2357315 C41.3311467,41.2509241 41.941509,41.2357315 42.1246176,41.6307383 C42.1246176,40.4001403 42.2772082,38.7137651 41.4837373,38.0604847 C41.4989963,37.1945083 43.3758603,37.3008563 43.9709636,36.6019981 C44.2151085,36.4804576 44.7339165,36.4956501 44.7796936,36.921042 Z M83.4156242,47.6773804 C82.9120753,48.4066237 82.3932674,48.9383635 81.6913507,49.4397183 C78.30384,49.3485629 75.099438,48.4825865 71.7271864,48.3458534 L71.4677824,48.0116169 C75.4046191,47.1304479 79.4940464,48.497779 83.4156242,47.6773804 Z M48.6249776,45.5959984 C48.197724,45.6871537 47.9078019,45.9758125 47.6636571,46.3708192 C47.4652892,47.1912179 47.3432168,48.8927854 48.0756515,49.1054813 C48.3655736,49.1814441 48.6707548,49.1206739 48.8386043,48.9231705 C48.9148996,47.8900759 48.8843816,46.6898632 48.731791,45.7175388 L48.6249776,45.5959984 Z M26.7892656,42.5726771 C26.5146026,42.5726771 26.1483852,43.6969271 25.9957946,44.3198224 C25.8737222,45.7631164 25.7974269,47.3735286 26.6061569,48.5129712 C26.8045247,48.7256671 26.9723743,48.3610455 27.0944467,48.2698901 C27.8879177,46.8569813 27.7505862,44.9882954 27.3385917,43.453846 C27.2165192,43.1348021 27.1860011,42.5726771 26.7892656,42.5726771 Z M62.3581264,42.7246031 C61.717246,44.4109781 61.457842,46.8569815 62.5717532,48.4066234 C62.7548618,48.5585491 62.9990068,48.4522011 63.1210792,48.2698903 C63.6551462,47.0089071 63.6551462,45.4744579 63.4110014,44.0767416 C63.2584108,43.5601943 63.1973745,43.0132619 62.7548618,42.6182551 C62.6327894,42.4511369 62.4496807,42.6030626 62.3581264,42.7246031 Z M79.1583485,37.3920116 C79.6924155,37.3008562 80.1654462,36.8602717 80.6995132,36.6627684 C80.8673629,36.6475758 80.9283991,36.8450792 81.0657306,36.8906569 L79.6466383,38.0908697 C79.6466383,38.5010691 79.8755241,38.9112684 80.0433738,39.2910826 L81.6150567,37.2097008 C81.7829063,37.2400859 81.8744606,37.4527819 82.0270512,37.5135522 C81.7981654,37.9085589 81.5387614,38.1972177 81.3251346,38.607417 L81.431948,38.6681873 C82.1186055,38.8960758 83.4003663,38.2276028 83.5987341,39.2910826 L82.0270512,39.4430082 L81.3251346,40.612836 C82.3017142,40.7647616 83.0341489,40.0962886 83.8886562,39.838015 L84.2243555,40.4305251 C83.2172576,40.8863022 82.1338646,41.2965015 80.9894354,41.4788123 C80.7910676,41.7218934 80.6842542,41.9953596 80.5164045,42.2536333 C81.8134244,41.980167 83.1562215,41.6155454 84.4685003,41.2965015 C85.0636036,43.2259576 84.7279043,45.4896502 83.7360656,47.1304475 L83.308812,47.3583359 C79.2499028,48.163542 75.267289,46.8417887 71.2236389,47.6469948 C69.8198056,45.7327313 69.3772929,42.7853731 70.3386135,40.5368731 L71.9560736,40.4912954 L71.9560736,40.3545623 C71.803483,39.7772447 70.5369813,39.2151197 71.4372656,38.6378022 C72.0018507,39.0783866 72.5053996,39.7772447 73.0089485,40.3089846 C73.1920572,40.3089846 73.405684,40.3393697 73.5582746,40.2785995 L71.803483,38.2731805 C71.9560736,37.9541366 72.2917729,37.7870184 72.5359177,37.5439373 L74.0007872,37.8325961 C74.0618234,37.4375893 74.0313053,37.0577751 74.0313053,36.6019981 C74.3364864,36.3893021 74.6874447,36.3133393 75.023144,36.1917988 L75.8623921,37.8325961 L76.9305261,35.8727549 L77.0831167,35.8727549 C77.4951113,36.571613 77.8002924,37.3160488 78.212287,38.0149069 L78.5479862,37.9845217 C78.3648775,37.2856636 78.0139192,36.5868055 77.693479,35.90314 C78.7310948,35.5537109 78.6700587,36.9058494 79.1583485,37.3920116 Z M83.8733969,42.2992111 C83.7055473,42.3295963 83.4766614,42.4055591 83.1867393,42.4663294 L83.7360654,43.499424 L82.820522,43.499424 C82.7442267,43.3778834 82.6984495,43.2259578 82.5916361,43.0588395 C82.576377,42.9980692 82.3932684,42.6486402 82.4237864,42.6486402 C82.1491234,42.7397956 81.6150564,42.8157584 81.2793571,42.8765287 C81.3556524,43.1196098 81.4166887,43.286728 81.492984,43.4842314 L80.7605492,43.4842314 C80.6537358,43.3019206 80.5774405,43.2107652 80.4706271,43.0284544 C79.631379,43.2715354 78.822649,43.5146165 78.0139189,43.7576976 C78.044437,44.6996368 78.0749551,45.7327314 78.2733228,46.5227448 C79.7839695,46.7810185 81.3861706,46.9481367 82.9578534,46.9329442 C83.7971016,45.6567685 84.2853914,44.0919341 83.9649513,42.5422922 C83.9649513,42.4055591 83.8733969,42.2992111 83.8733969,42.2992111 Z M75.2825479,41.8890116 C74.6264085,42.2536332 74.0770824,43.1044171 73.3446477,43.3778833 L72.4596224,43.3778833 C72.6427311,43.1803799 72.8258398,42.9069137 72.9021351,42.754988 C72.612213,42.6030623 72.3222909,42.4815218 71.9865917,42.4359441 C71.7577059,42.7246029 71.4525247,43.1955725 71.2388979,43.3626907 C71.0863073,43.3778833 70.994753,43.3778833 70.7811262,43.3474982 C70.7963852,44.1678968 70.8269033,45.0946435 71.2236389,45.7783091 C72.9631713,45.8390793 74.9010715,46.0669678 76.7168993,46.2948564 L76.7168993,43.5601941 L76.3812,43.0436468 C76.0760189,43.2411502 75.7250606,43.3323056 75.3588432,43.3778833 C74.8247762,43.3930759 74.3364864,43.4082684 73.8481965,43.3778833 L75.7250606,42.3144035 L75.2825479,41.8890116 Z M31.9926047,42.8005659 C31.824755,43.6513497 31.7789779,44.7452146 32.1757133,45.5656132 C32.5114126,45.4592653 32.87763,45.3073396 33.1980702,45.0946436 C33.6100647,44.6388666 33.6405828,44.0919342 33.2743654,43.3778835 L32.7250394,42.4359443 C32.4198583,42.2536335 32.0383819,42.6030626 31.9926047,42.8005659 Z M70.8574215,41.9193968 L70.7811262,42.754988 C70.9794939,42.542292 71.1320845,42.3144035 71.2236389,42.0713224 L70.8574215,41.9193968 Z M79.509307,41.6155453 L78.9142037,42.5878696 C79.1278305,42.5422919 79.3414573,42.5270994 79.4787888,42.4511365 L79.9670787,41.6307379 C79.8297471,41.6307379 79.6771566,41.6003527 79.509307,41.6155453 Z M73.1157619,40.9774578 L72.5053996,41.7370862 L73.5582745,42.1776706 L74.6569266,41.3724646 C74.489077,40.6584139 73.6345698,41.0989984 73.1157619,40.9774578 Z M79.2804212,39.6253191 C78.8684266,39.8684002 78.5479865,40.0659036 78.1817691,40.3849475 L78.2428053,41.7674712 C78.6395408,41.0989982 79.738193,40.5368732 79.2804212,39.6253191 Z M77.2967434,41.6611232 L77.3272615,40.7951468 C76.8237126,40.719184 76.8694898,41.6155455 77.2967434,41.6611232 Z M75.8318739,40.2026366 L75.5419518,40.855917 L76.1675731,41.5547751 L75.8318739,40.2026366 Z M70.735349,41.1141907 L71.3609703,41.4028495 C71.6966696,41.6611231 71.7424468,41.2509238 71.9102965,41.0838056 C71.52882,41.0989981 71.1168255,41.0534204 70.735349,41.1141907 Z M81.172544,39.4733934 C80.9741762,39.5189711 80.8215856,39.5341636 80.7452904,39.5493562 L80.0128556,40.6432211 C80.1501872,40.6584136 80.379073,40.6736062 80.4858865,40.6736062 L81.172544,39.4733934 Z M74.8400355,38.9720388 L74.8400355,40.2785996 L75.3893616,39.1543496 C75.236771,39.0176165 75.0231442,39.0328091 74.8400355,38.9720388 Z M77.0828743,37.2861579 L76.3812,38.820113 C76.4269771,39.3518529 76.5795677,39.8532076 76.7779354,40.2785995 C77.6019245,40.050711 77.4035568,39.1391569 77.5866654,38.5314542 L77.0828743,37.2861579 Z M72.8258399,38.3035657 L73.9244919,39.4430082 C73.9702691,39.1543494 73.9855282,38.8808832 74.0007872,38.607417 C73.6040517,38.501069 73.2378343,38.3491434 72.8258399,38.3035657 Z M85.3382661,37.240086 C85.7197425,37.240086 86.0401826,37.5287448 86.0401826,37.9237516 C86.0401826,38.3187583 85.7197425,38.6074171 85.3382661,38.6074171 C84.9567896,38.6226097 84.6363494,38.3187583 84.6363494,37.9237516 C84.6363494,37.5287448 84.9567896,37.240086 85.3382661,37.240086 Z M85.3382659,37.3464339 C85.0178256,37.3464339 84.7736808,37.589515 84.7736808,37.9237515 C84.7736808,38.257988 85.0178256,38.501069 85.3382659,38.501069 C85.6587061,38.501069 85.902851,38.257988 85.902851,37.9237515 C85.902851,37.6047076 85.6587061,37.3464339 85.3382659,37.3464339 Z M60.7101479,37.02739 C61.0916244,37.02739 61.4120645,37.3160488 61.4120645,37.7110555 C61.4120645,38.1060623 61.0916244,38.3947211 60.7101479,38.3947211 C60.3286715,38.4099136 60.0082312,38.1212548 60.0082312,37.7110555 C60.0082312,37.3160488 60.3286715,37.02739 60.7101479,37.02739 Z M85.3687845,37.5287447 C85.5518931,37.5287447 85.6434475,37.6047076 85.6434475,37.7566333 C85.6434475,37.8933664 85.5518931,37.9541366 85.4298206,37.9693292 L85.6587065,38.3187582 L85.521375,38.3187582 L85.3077482,37.9693292 L85.1856758,37.9693292 L85.1856758,38.3187582 L85.0636033,38.3187582 L85.0636033,37.5287447 L85.3687845,37.5287447 Z M60.7101478,37.133738 C60.3897075,37.133738 60.1455626,37.376819 60.1455626,37.7110555 C60.1455626,38.045292 60.3897075,38.2883731 60.7101478,38.2883731 C61.0305879,38.2883731 61.2747329,38.045292 61.2747329,37.7110555 C61.2747329,37.3920116 61.0305879,37.133738 60.7101478,37.133738 Z M74.76374,37.3616265 C74.8552944,37.6502853 74.5348541,38.3491434 75.1299574,38.1972177 L74.76374,37.3616265 Z M60.7406663,37.3160488 C60.9237749,37.3160488 61.0153293,37.3920116 61.0153293,37.5439373 C61.0153293,37.6806704 60.9237749,37.7414407 60.8017025,37.7566332 L61.0305884,38.1060623 L60.8932569,38.1060623 L60.6796301,37.7566332 L60.5422985,37.7566332 L60.5422985,38.1212549 L60.4354852,38.1212549 L60.4354852,37.3160488 L60.7406663,37.3160488 Z" id="logo"></path>
        </g>
    </g>
</svg>