<?xml version="1.0" encoding="UTF-8"?>
<svg width="87px" height="87px" viewBox="0 0 87 87" version="1.1" xmlns="http://www.w3.org/2000/svg" xmlns:xlink="http://www.w3.org/1999/xlink">
    <!-- Generator: sketchtool 61.2 (101010) - https://sketch.com -->
    <title>336FF2EB-8833-4404-88CD-EE36F6D6AB02</title>
    <desc>Created with sketchtool.</desc>
    <g id="Asset-Artboard-Page" stroke="none" stroke-width="1" fill="none" fill-rule="evenodd">
        <g id="Icons/logos/brand/adidas_originals-Copy-6-Icons/logos/brand/under_armour" fill="#000">
            <path d="M42.9914669,60.923955 C43.293224,60.923955 43.5868985,61.058668 43.9075153,61.6796949 C44.1244033,62.1215536 45.6251063,64.8333265 45.9376405,65.4004683 L45.9376405,65.5540411 L44.3749695,65.5540411 L43.925028,64.7417217 L42.0255746,64.7417217 C42.0255746,64.7417217 41.7063048,64.01023 41.6146999,63.8081605 C41.4974996,63.9981059 40.8697369,65.1916631 40.6528489,65.5540411 L39.0861366,65.5540411 L39.0861366,65.4557006 C39.4054064,64.8535335 41.5891044,60.923955 41.5891044,60.923955 L42.9914669,60.923955 Z M29.0872231,60.9231817 C29.4078401,60.9231817 29.3647319,61.1319869 29.3647319,61.5199603 C29.3647319,61.8809912 29.4132285,62.0844079 29.0872231,62.0844079 L26.1033298,62.0844079 C26.0238492,62.0844079 25.7544232,62.0412997 25.7544232,62.3241971 C25.7544232,62.6070943 25.6991907,62.7189061 25.9996008,62.7189061 L28.6386287,62.7189061 C28.6386287,62.7189061 29.0198665,63.4450092 29.0629747,63.5675981 C29.1249427,63.6780628 29.1182071,63.7831389 28.8851535,63.7831389 L26.1531737,63.7831389 L25.7288277,62.9586953 L25.7288277,64.1765009 C25.7288277,64.4593982 25.9820881,64.4041659 26.0548331,64.4041659 L29.1545795,64.4041659 C29.4013738,64.4041659 29.4343516,64.5412498 29.4376709,64.7754134 L29.4376709,65.1742609 C29.4343516,65.4204947 29.4013738,65.5532678 29.1545795,65.5532678 L25.2303895,65.5532678 C24.904384,65.5532678 24.2658444,65.4549274 24.2658444,64.43515 L24.2658444,61.8756027 C24.2658444,61.6115652 24.407293,60.9231817 25.3112173,60.9231817 L29.0872231,60.9231817 Z M65.4875096,60.8677679 C67.147655,60.8677679 67.102978,62.1542136 67.0976693,63.0251905 L67.0977253,63.4670977 C67.093743,64.3911351 67.0054661,65.5423096 65.7744483,65.5423096 L62.1345027,65.5423096 C60.9213601,65.5423096 60.8288207,64.3911351 60.8236167,63.4670977 L60.8237451,63.1201695 C60.8237451,62.245882 60.7254045,60.8812393 62.4416483,60.8677679 L65.4875096,60.8677679 Z M23.7054415,62.6272333 C23.7054415,64.4310406 23.9021224,65.5316459 21.8127236,65.5316459 L19.6034301,65.5316459 L19.1238518,64.560365 L19.1238518,65.5316459 L17.6770341,65.5316459 L17.6770341,60.8934454 L21.8507682,60.8936565 C22.2581425,60.898364 23.7054415,60.9897966 23.7054415,62.6272333 Z M5.56113238,60.885165 C5.82337373,60.885165 5.83761007,61.0512113 5.83753615,61.1827237 L5.83729407,63.6710302 C5.83729407,63.84481 5.8696252,64.3109171 6.50951203,64.3109171 L8.03446341,64.3109171 C8.66222608,64.3109171 8.69859859,63.84481 8.69859859,63.6710302 L8.69859859,61.2300303 C8.69859859,61.0953173 8.6810859,60.885165 8.97476028,60.885165 L9.89080881,60.885165 C10.22355,60.885165 10.1939131,61.0953173 10.1939131,61.2300303 L10.1939131,63.6710302 C10.1939131,64.1883282 10.1629291,65.5300699 8.39684144,65.5300699 L6.14039836,65.5300699 C4.44620753,65.5300699 4.35472834,64.285876 4.35027609,63.7317905 L4.35006235,61.2300303 C4.35006235,61.0818461 4.33793818,60.885165 4.65181951,60.885165 L5.56113238,60.885165 Z M52.2385726,62.3811317 C52.2385726,63.3591481 52.0311145,63.4076448 51.5865615,63.7094019 C52.3301775,63.8387264 52.2318369,64.7911474 52.2318369,65.284197 C52.2318369,65.5046212 52.161702,65.5280486 52.0945323,65.5304613 L50.8550699,65.5307218 C50.6018095,65.5307218 50.6637775,65.1306241 50.6637775,64.921819 C50.6637775,64.3933295 50.3917368,64.3744856 50.2524055,64.3747137 L48.4369713,64.3748842 C48.2645387,64.0785156 47.9317976,63.4143804 47.9317976,63.4143804 L47.9317976,65.3394293 C47.9317976,65.5064735 47.7674477,65.5307218 47.7054797,65.5307218 L46.4969356,65.5300061 C46.4719295,65.5255859 46.3650853,65.5010849 46.3650853,65.3758018 L46.3650853,61.2926505 C46.3650853,61.0030175 46.5685019,60.8925526 46.7463231,60.8925526 L50.8793183,60.8925526 C51.4329888,60.8925526 52.2385726,60.8871644 52.2385726,62.3811317 Z M35.8750978,62.3811317 C35.8750978,63.3591481 35.6676397,63.4076448 35.2244339,63.7094019 C35.9693969,63.8387264 35.8710563,64.7911474 35.8710563,65.284197 C35.8710563,65.5046212 35.8009214,65.5280486 35.7328492,65.5304613 L34.4929423,65.5307218 C34.2396817,65.5307218 34.3016497,65.1306241 34.3016497,64.921819 C34.3016497,64.3933295 34.0296092,64.3744856 33.8902778,64.3747137 L32.0748437,64.3748842 C31.9037581,64.0785156 31.5710169,63.4143804 31.5710169,63.4143804 L31.5710169,65.3394293 C31.5710169,65.5064735 31.4039728,65.5307218 31.3433519,65.5307218 L30.1351656,65.5300061 C30.1092123,65.5255859 30.0016104,65.5010849 30.0016104,65.3758018 L30.0016104,61.2926505 C30.0016104,61.0030175 30.205027,60.8925526 30.3841953,60.8925526 L34.5171905,60.8925526 C35.070861,60.8925526 35.8750978,60.8871644 35.8750978,62.3811317 Z M68.8125588,60.885165 C69.0736027,60.885165 69.0887704,61.0512113 69.0889182,61.1827237 L69.0887205,63.6710302 C69.0887205,63.84481 69.1197045,64.3109171 69.7595913,64.3109171 L71.2845427,64.3109171 C71.9123054,64.3109171 71.9486778,63.84481 71.9486778,63.6710302 L71.9486778,61.2300303 C71.9486778,61.0953173 71.929818,60.885165 72.2248396,60.885165 L73.140888,60.885165 C73.4736292,60.885165 73.4439924,61.0953173 73.4439924,61.2300303 L73.4439924,63.6710302 C73.4439924,64.1883282 73.4130084,65.5300699 71.6469207,65.5300699 L69.3904776,65.5300699 C67.6949895,65.5300699 67.6047115,64.285876 67.60035,63.7317905 L67.6001416,61.2300303 C67.6001416,61.0818461 67.5880175,60.885165 67.9018988,60.885165 L68.8125588,60.885165 Z M55.3078605,61.5317873 C55.5665095,62.0841107 56.1147914,63.2305184 56.4892936,63.8380741 C56.8759199,63.2305184 57.436326,62.0841107 57.6949749,61.5317873 C57.9880206,60.9340208 58.2527347,60.8917568 58.4742093,60.8911134 L60.0120387,60.8919005 C60.3084074,60.8919005 60.2774234,61.0953171 60.2774234,61.2300302 L60.2774234,65.204064 C60.2774234,65.3333884 60.3191843,65.5300695 60.0120387,65.5300695 L59.1700825,65.5300695 C58.8629368,65.5300695 58.8871851,65.3333884 58.8871851,65.204064 L58.8871851,62.3144699 C58.3038778,63.3584957 57.4538387,64.9521506 57.1332217,65.5300695 L55.8494068,65.5300695 C55.540914,64.9521506 54.6854864,63.3584957 54.1075675,62.3144699 L54.1075675,65.204064 C54.1075675,65.3333884 54.1250802,65.5300695 53.8327531,65.5300695 L52.9948381,65.5300695 C52.6809569,65.5300695 52.7052051,65.3333884 52.7052051,65.204064 L52.7052051,61.2300302 C52.7052051,61.0953171 52.6876925,60.8919005 52.9948381,60.8919005 L54.5312206,60.8911134 C54.7381143,60.8917568 55.0078097,60.9340208 55.3078605,61.5317873 Z M79.9139836,62.3811317 C79.9139836,63.3591481 79.7038313,63.4076448 79.2606256,63.7094019 C80.0055885,63.8387264 79.907248,64.7911474 79.907248,65.284197 C79.907248,65.5046212 79.837113,65.5280486 79.7690409,65.5304613 L78.529134,65.5307218 C78.2772206,65.5307218 78.3378414,65.1306241 78.3378414,64.921819 C78.3378414,64.3933295 78.0658009,64.3744856 77.9275291,64.3747137 L76.1110353,64.3748842 C75.9399499,64.0785156 75.6072087,63.4143804 75.6072087,63.4143804 L75.6072087,65.3394293 C75.6072087,65.5064735 75.4401645,65.5307218 75.3795437,65.5307218 L74.1715679,65.5300061 C74.1459935,65.5255859 74.0391492,65.5010849 74.0391492,65.3758018 L74.0391492,61.2926505 C74.0391492,61.0030175 74.2425659,60.8925526 74.4190399,60.8925526 L78.5533822,60.8925526 C79.1070527,60.8925526 79.9139836,60.8871644 79.9139836,62.3811317 Z M12.6845759,60.8854836 C13.1520301,60.8854836 13.8175124,61.8271277 14.2539825,62.4481546 C14.5907651,62.9223443 15.2131392,63.6349762 15.6307495,64.1697868 L15.6307495,61.2303489 C15.6307495,61.095636 15.6118897,60.8854836 15.9203825,60.8854836 L16.8418195,60.8854836 C17.1052583,60.8854836 17.1196277,61.05153 17.1195686,61.1830423 L17.1193283,65.5303883 L15.4219444,65.5303883 C15.0582192,65.5303883 14.8979107,65.5546366 14.5665167,65.2353668 C13.9454897,64.398799 13.0590781,63.3453433 12.1551538,62.2326138 L12.1558486,65.2976804 C12.1526923,65.4114085 12.1189309,65.5303883 11.8789921,65.5303883 L11.0303001,65.5303883 C10.7231544,65.5303883 10.7595269,65.3337073 10.7595269,65.2043828 L10.7595269,61.2303489 C10.7595269,61.095636 10.7460556,60.8854836 11.0303001,60.8854836 L12.6845759,60.8854836 Z M64.7546708,62.0424654 L63.2216367,62.0424654 C62.324448,62.0424654 62.4295241,62.7187247 62.4295241,63.1498064 L62.4290294,63.3394018 C62.4302818,63.7990179 62.4733058,64.3487523 63.0815351,64.3487523 L64.8893838,64.3487523 C65.542321,64.3487523 65.5606335,63.7176796 65.560372,63.2425252 L65.5602546,63.1498064 C65.5602546,62.7187247 65.6585951,62.0424654 64.7546708,62.0424654 Z M21.5292309,62.1307144 L19.1117276,62.1301423 L19.1117276,64.3084517 L21.5594629,64.3084517 C22.3030789,64.3084517 22.2491936,63.5944728 22.2491936,63.2684672 C22.2491936,62.2340958 21.9740256,62.1381793 21.5292309,62.1307144 Z M42.5738564,62.2010342 L42.4997642,62.2077698 L41.7372887,63.5980081 L41.8046452,63.6653646 L43.2258675,63.6653646 L43.2999595,63.5980081 C43.2501158,63.492932 42.6358245,62.3249701 42.5738564,62.2010342 Z M33.673887,62.117094 L31.8350544,62.117094 C31.5632335,62.117094 31.5415463,62.200117 31.5400828,62.2838498 L31.5400329,63.1449542 L33.4340979,63.1449542 C34.3514934,63.1449542 34.3514934,62.9159421 34.3514934,62.676153 C34.3514934,62.1965746 34.3151209,62.117094 33.673887,62.117094 Z M50.0360148,62.117094 L48.1971823,62.117094 C47.9241638,62.117094 47.9034081,62.200117 47.9021663,62.2838498 L47.9021607,63.1449542 L49.7962256,63.1449542 C50.7136213,63.1449542 50.7136213,62.9159421 50.7136213,62.676153 C50.7136213,62.1965746 50.6772487,62.117094 50.0360148,62.117094 Z M77.7100788,62.117094 L75.8712462,62.117094 C75.5982279,62.117094 75.5774721,62.200117 75.5762303,62.2838498 L75.5762247,63.1449542 L77.4702896,63.1449542 C78.3337208,63.1449542 78.3845109,62.9420922 78.3874985,62.7183124 L78.3876852,62.676153 C78.3876852,62.1965746 78.3513128,62.117094 77.7100788,62.117094 Z M81.7987852,60.0252442 C82.261403,60.0252442 82.6500018,60.3753017 82.6500018,60.8543276 C82.6500018,61.3333537 82.261403,61.683411 81.7987852,61.683411 C81.3361676,61.7018351 80.9475687,61.3517777 80.9475687,60.8543276 C80.9475687,60.3753017 81.3361676,60.0252442 81.7987852,60.0252442 Z M81.7987852,60.1542128 C81.4101864,60.1542128 81.114111,60.448998 81.114111,60.8543276 C81.114111,61.2596573 81.4101864,61.5544425 81.7987852,61.5544425 C82.1873841,61.5544425 82.4834594,61.2596573 82.4834594,60.8543276 C82.4834594,60.4674221 82.1873841,60.1542128 81.7987852,60.1542128 Z M81.8357946,60.3753017 C82.0578512,60.3753017 82.1688794,60.4674221 82.1688794,60.6516628 C82.1688794,60.8174795 82.0578512,60.8911758 81.9098134,60.9095998 L82.1873842,61.3333537 L82.0208418,61.3333537 L81.7617758,60.9095998 L81.5952335,60.9095998 L81.5952335,61.3517777 L81.4657005,61.3517777 L81.4657005,60.3753017 L81.8357946,60.3753017 Z M81.8357946,60.4858461 L81.6322428,60.4858461 L81.6322428,60.7990554 L81.7987852,60.7990554 C81.9283181,60.7990554 82.0393465,60.7990554 82.0393465,60.6332387 C82.0393465,60.5226943 81.9283181,60.4858461 81.8357946,60.4858461 Z M29.1070457,21.4459593 L29.0922273,31.4618719 C29.0922273,32.9598807 29.6943945,34.4888734 30.8286781,35.841392 C34.3029269,35.00213 38.142248,34.5306344 42.167473,34.5292873 L42.167473,34.5292873 C46.1926981,34.5306344 50.0279777,35.0007828 53.4981851,35.8386977 C54.6324687,34.4861791 55.2332887,32.9585335 55.2332887,31.4618719 L55.2332887,31.4618719 L55.2171233,21.4459593 C55.2171233,21.4459593 58.7196617,21.8325856 63.3106815,23.5218868 C68.5388937,25.4455886 70.1581443,26.6930312 70.1581443,26.6930312 C69.9399092,31.1884045 65.9348911,35.240572 59.8014073,37.9388737 C65.9402796,40.6358282 69.9466448,44.6893428 70.1648799,49.1860633 C70.1648799,49.1860633 68.5469765,50.4348529 63.3187643,52.3572076 C58.7263973,54.0465088 55.2252059,54.4331352 55.2252059,54.4331352 L55.2252059,54.4331352 L55.2386773,44.4172225 C55.2386773,42.9205609 54.6378573,41.388874 53.5035736,40.0363553 C50.0306719,40.8783117 46.1900038,41.3484601 42.1634316,41.3484601 L42.1634316,41.3484601 C38.1395538,41.3484601 34.3056212,40.8796588 30.8354138,40.0403968 C29.6997831,41.3915683 29.0989629,42.9205609 29.0989629,44.4172225 L29.0989629,44.4172225 L29.1151285,54.4331352 C29.1151285,54.4331352 25.6139372,54.0465088 21.0215704,52.3572076 C15.793358,50.4348529 14.1754546,49.1860633 14.1754546,49.1860633 C14.3923426,44.6920371 18.3973607,40.6398697 24.5321916,37.941568 C18.3919722,35.2432663 14.385607,31.1897516 14.168719,26.6930312 C14.168719,26.6930312 15.7852752,25.4455886 21.0134876,23.5218868 C25.6072015,21.8325856 29.1070457,21.4459593 29.1070457,21.4459593 L29.1070457,21.4459593 Z M71.3223914,47.0524591 C71.7850091,47.0524591 72.1736079,47.4025165 72.1736079,47.8815424 C72.1736079,48.3605684 71.7850091,48.7106258 71.3223914,48.7106258 C70.8597738,48.7290499 70.4711749,48.3789925 70.4711749,47.8815424 C70.4711749,47.4025165 70.8597738,47.0524591 71.3223914,47.0524591 Z M71.3223914,47.1814276 C70.9337926,47.1814276 70.6377172,47.4762128 70.6377172,47.8815424 C70.6377172,48.2868721 70.9337926,48.5816573 71.3223914,48.5816573 C71.7109903,48.5816573 72.0070656,48.2868721 72.0070656,47.8815424 C72.0070656,47.4946368 71.7109903,47.1814276 71.3223914,47.1814276 Z M71.3594008,47.4025165 C71.5814574,47.4025165 71.6924856,47.4946368 71.6924856,47.6788776 C71.6924856,47.8446942 71.5814574,47.9183907 71.4334196,47.9368147 L71.7109903,48.3605684 L71.544448,48.3605684 L71.285382,47.9368147 L71.1188397,47.9368147 L71.1188397,48.3789925 L70.9893067,48.3789925 L70.9893067,47.4025165 L71.3594008,47.4025165 Z M71.3594008,47.5130609 L71.155849,47.5130609 L71.155849,47.8262702 L71.3223914,47.8262702 C71.4519243,47.8262702 71.5629527,47.8262702 71.5629527,47.6604535 C71.5629527,47.5499091 71.4519243,47.5130609 71.3594008,47.5130609 Z M42.1715134,35.6878186 L42.1661249,35.6878186 L42.0543131,35.6891656 C38.4157147,35.6891656 35.4533756,36.5796187 33.281802,37.9415673 C35.4533756,39.3008216 38.4143675,40.1899274 42.0462303,40.1899274 L42.0462303,40.1899274 L42.1607364,40.1926217 L42.1647777,40.1926217 L42.2792838,40.1899274 C45.9165351,40.1899274 48.878874,39.2981273 51.0504478,37.9375258 C48.878874,36.5782715 45.9192292,35.6891656 42.2860195,35.6891656 L42.2860195,35.6891656 L42.1715134,35.6878186 Z" id="logo"></path>
        </g>
    </g>
</svg>